PathFileType	4	(X/Y/Z)	 s04c0001.trc
DataRate	CameraRate	NumFrames	NumMarkers	Units	OrigDataRate	OrigDataStartFrame	OrigNumFrames
200	200	5	49	mm	200	1751	2000
Frame#	Time	racr			lacr			c7			jug			rlel			rdr			llel			ldr			s2			lic			ric			lasi			rasi			rpsi			lpsi			rgt			lgt			rth1			rth2			rth3			rth4			rlfc			rmfc			rsh1			rsh2			rsh3			rsh4			rlmal			rmmal			rcal			rtoe			rmt5			rmt1			lth1			lth2			lth4			lth3			llfc			lmfc			lsh1			lsh2			lsh3			lsh4			llmal			lmmal			lcal			ltoe			lmt1			lmt5			
		X1	Y1	Z1	X2	Y2	Z2	X3	Y3	Z3	X4	Y4	Z4	X5	Y5	Z5	X6	Y6	Z6	X7	Y7	Z7	X8	Y8	Z8	X9	Y9	Z9	X10	Y10	Z10	X11	Y11	Z11	X12	Y12	Z12	X13	Y13	Z13	X14	Y14	Z14	X15	Y15	Z15	X16	Y16	Z16	X17	Y17	Z17	X18	Y18	Z18	X19	Y19	Z19	X20	Y20	Z20	X21	Y21	Z21	X22	Y22	Z22	X23	Y23	Z23	X24	Y24	Z24	X25	Y25	Z25	X26	Y26	Z26	X27	Y27	Z27	X28	Y28	Z28	X29	Y29	Z29	X30	Y30	Z30	X31	Y31	Z31	X32	Y32	Z32	X33	Y33	Z33	X34	Y34	Z34	X35	Y35	Z35	X36	Y36	Z36	X37	Y37	Z37	X38	Y38	Z38	X39	Y39	Z39	X40	Y40	Z40	X41	Y41	Z41	X42	Y42	Z42	X43	Y43	Z43	X44	Y44	Z44	X45	Y45	Z45	X46	Y46	Z46	X47	Y47	Z47	X48	Y48	Z48	X49	Y49	Z49	
1751	8.7550	183.038985	1562.857992	283.827695	201.489703	1553.812337	-82.600115	127.510828	1591.059698	85.402140	260.063675	1526.306293	97.352970	101.596916	1224.643597	380.525694	211.688563	981.253647	489.772488	159.333858	1235.957657	-187.188594	295.207115	974.456669	-263.412257	68.547161	1054.454998	98.408671	241.752377	1110.745802	-48.415198	207.097276	1101.063294	274.526296	290.124276	1055.521413	5.244656	272.155972	1059.507309	232.803120	86.384921	1089.179273	143.426635	87.239513	1084.949976	64.318143	170.687953	1000.710007	278.403274	193.283888	955.773909	-67.043121	184.472366	865.326034	299.969524	198.385644	778.533735	289.817562	170.429123	698.694155	280.021384	234.167951	777.573764	279.650070	154.395964	548.129658	249.667269	161.411779	525.771813	139.505065	105.570446	425.999292	268.137353	121.610652	336.527668	259.948162	88.759799	257.383034	243.135913	157.763677	335.840182	245.856041	89.206744	103.418970	231.608008	138.456736	111.545566	159.416622	48.201042	68.342825	168.064463	314.100366	83.226156	304.822808	232.243358	52.716002	326.722390	279.408920	49.887745	227.749615	195.916343	862.233839	-79.941442	214.401279	777.251382	-77.699341	249.679433	775.597327	-67.455053	187.411958	692.500744	-72.235528	165.115769	552.042534	-53.627180	190.088239	522.186995	50.904750	148.371896	424.110663	-80.297929	170.862198	340.327496	-67.934124	147.542711	254.348659	-67.669521	200.097016	341.738260	-41.711323	146.768958	104.782841	-63.846783	154.835827	100.216182	21.965198	80.102067	77.329406	-14.544076	377.019726	82.860148	-57.723333	312.873484	54.968779	0.000274	302.242267	43.134153	-111.001184	
1752	8.7600	182.981367	1562.837665	283.836915	201.473610	1553.834059	-82.576701	127.478900	1591.054332	85.431006	260.044980	1526.296152	97.388082	101.552231	1224.585311	380.510302	211.675870	981.222028	489.771034	159.402264	1235.956611	-187.191617	295.298589	974.462181	-263.384162	68.563107	1054.506640	98.396620	241.743186	1110.726452	-48.426054	207.063248	1101.067697	274.525716	290.122497	1055.527258	5.227046	272.184037	1059.517869	232.784613	86.379670	1089.196542	143.415397	87.240517	1084.955123	64.321418	170.704434	1000.707556	278.395953	193.279113	955.789297	-67.057355	184.465285	865.316996	299.966270	198.397590	778.541854	289.801155	170.446810	698.686185	280.006786	234.171716	777.554824	279.626384	154.393103	548.137597	249.653659	161.407973	525.794016	139.480547	105.567456	425.997569	268.129759	121.602014	336.516843	259.943442	88.747569	257.382846	243.146949	157.788697	335.854669	245.860518	89.214127	103.426259	231.606051	138.457649	111.530624	159.416741	48.204461	68.331403	168.075299	314.095072	83.212164	304.812215	232.246554	52.706922	326.727612	279.407619	49.900670	227.746073	195.910677	862.237944	-79.939125	214.401268	777.251731	-77.699174	249.659686	775.593005	-67.478656	187.406708	692.510017	-72.245852	165.100101	552.046726	-53.635173	190.071363	522.166480	50.893380	148.372491	424.092806	-80.291329	170.857327	340.319606	-67.938069	147.539866	254.344869	-67.668628	200.092300	341.721879	-41.724258	146.787901	104.763592	-63.839961	154.836258	100.215928	21.964875	80.105281	77.343676	-14.535017	377.019202	82.861879	-57.740388	312.883324	54.970988	-0.012335	302.266938	43.100242	-110.982476	
1753	8.7650	182.909963	1562.795483	283.849016	201.461213	1553.831311	-82.551034	127.453153	1591.078230	85.426548	260.001271	1526.292806	97.409518	101.521736	1224.542926	380.489367	211.671225	981.199959	489.740700	159.424279	1235.958656	-187.178980	295.370755	974.484554	-263.376363	68.554543	1054.498106	98.388107	241.753675	1110.737577	-48.432832	207.049825	1101.041055	274.508990	290.109749	1055.499754	5.244901	272.171567	1059.495615	232.759890	86.395336	1089.194754	143.421601	87.258046	1084.950399	64.301862	170.713563	1000.691119	278.379346	193.265695	955.777110	-67.069750	184.476884	865.322430	299.951379	198.397235	778.547216	289.800428	170.440937	698.675885	279.990965	234.162768	777.559275	279.629653	154.394204	548.135570	249.655448	161.390264	525.775117	139.478942	105.576610	425.997681	268.118599	121.588647	336.533109	259.922104	88.758470	257.390130	243.137418	157.788756	335.854341	245.853937	89.204846	103.422384	231.620602	138.470712	111.531110	159.424668	48.209898	68.334923	168.070576	314.102825	83.208621	304.824678	232.226268	52.698945	326.729537	279.420721	49.889352	227.755125	195.888349	862.224261	-79.951134	214.380106	777.256788	-77.722758	249.644861	775.607951	-67.502687	187.373895	692.499272	-72.251604	165.089885	552.052449	-53.647667	190.064513	522.184777	50.891870	148.356062	424.092361	-80.305475	170.849599	340.312661	-67.946732	147.526365	254.341335	-67.669150	200.084582	341.714933	-41.720536	146.781754	104.758832	-63.839696	154.836262	100.215926	21.964871	80.100607	77.341089	-14.537600	377.019207	82.861894	-57.740384	312.888847	54.983779	-0.005876	302.235803	43.127090	-111.006390	
1754	8.7700	182.842109	1562.769362	283.844649	201.438799	1553.840961	-82.535684	127.421233	1591.060271	85.422515	259.968430	1526.282041	97.413742	101.499610	1224.476664	380.465317	211.677865	981.174480	489.729226	159.470572	1235.965042	-187.194372	295.458051	974.502030	-263.336213	68.554606	1054.504301	98.384791	241.730605	1110.733664	-48.451012	207.058700	1101.048101	274.493612	290.108881	1055.525317	5.215870	272.174993	1059.512640	232.760446	86.390969	1089.207134	143.404325	87.265170	1084.954921	64.299918	170.701239	1000.698258	278.372143	193.257388	955.785782	-67.069336	184.489617	865.336939	299.933998	198.383832	778.534763	289.778197	170.428756	698.680005	279.989144	234.179649	777.554553	279.602178	154.388199	548.143930	249.657547	161.392822	525.776136	139.467012	105.578852	426.008469	268.108166	121.595622	336.513020	259.912315	88.758765	257.395657	243.143232	157.781361	335.848259	245.846658	89.201730	103.417570	231.612073	138.457134	111.533628	159.412624	48.202280	68.343138	168.058852	314.101665	83.215485	304.814952	232.250646	52.707310	326.723044	279.403222	49.886484	227.749993	195.865285	862.237211	-79.956884	214.347794	777.258606	-77.731761	249.630852	775.598358	-67.500164	187.356235	692.502182	-72.253876	165.069574	552.042654	-53.658688	190.037960	522.169514	50.887881	148.324629	424.091360	-80.310253	170.833299	340.318528	-67.945737	147.504862	254.335964	-67.689548	200.083209	341.713372	-41.728394	146.781788	104.764707	-63.847547	154.836265	100.215924	21.964868	80.100350	77.328866	-14.542386	376.996223	82.858268	-57.742280	312.898580	54.969227	0.002881	302.265317	43.129334	-110.992828	
1755	8.7750	182.750059	1562.743695	283.878549	201.425667	1553.849059	-82.535796	127.389759	1591.048382	85.436350	259.936170	1526.270404	97.436568	101.463810	1224.436053	380.436246	211.666639	981.130668	489.704796	159.502735	1235.971794	-187.199601	295.542747	974.513968	-263.319688	68.552612	1054.517112	98.384485	241.737905	1110.738830	-48.435511	207.036873	1101.062210	274.488083	290.108090	1055.503274	5.216292	272.167866	1059.499498	232.746364	86.394508	1089.201955	143.389034	87.276312	1084.953091	64.300717	170.691333	1000.711221	278.370251	193.242185	955.783271	-67.086909	184.479937	865.322166	299.933635	198.380285	778.545791	289.777095	170.425808	698.674009	279.983992	234.153496	777.549094	279.600131	154.378473	548.147914	249.636338	161.388340	525.785645	139.465187	105.569910	426.007498	268.107776	121.595211	336.526322	259.925759	88.739940	257.389087	243.136331	157.762713	335.851256	245.852021	89.207645	103.423496	231.619111	138.451506	111.532309	159.417800	48.193068	68.339969	168.067043	314.097554	83.207061	304.822343	232.240283	52.706757	326.728971	279.409442	49.881001	227.748667	195.858257	862.237968	-79.961814	214.347783	777.258986	-77.731579	249.623150	775.594407	-67.486327	187.329702	692.508477	-72.267285	165.049839	552.041409	-53.647334	190.037259	522.178634	50.888622	148.313123	424.101857	-80.294005	170.826251	340.312350	-67.946755	147.518479	254.340603	-67.691697	200.068829	341.720399	-41.729105	146.756392	104.781430	-63.869266	154.826805	100.212660	21.954581	80.110276	77.322347	-14.537962	377.004192	82.866929	-57.735196	312.888922	54.974107	-0.008224	302.258279	43.119132	-110.996109	
